<?xml version="1.0" standalone="no"?><!DOCTYPE svg PUBLIC "-//W3C//DTD SVG 1.1//EN" "http://www.w3.org/Graphics/SVG/1.1/DTD/svg11.dtd"><svg class="icon" width="200px" height="200.00px" viewBox="0 0 1024 1024" version="1.1" xmlns="http://www.w3.org/2000/svg"><path fill="#333333" d="M904.746667 828.373333a21.333333 21.333333 0 0 0 0-9.173333 405.333333 405.333333 0 0 0-65.706667-154.666667 21.333333 21.333333 0 1 0-34.986667 24.32 362.666667 362.666667 0 0 1 57.6 133.546667 21.333333 21.333333 0 0 0 0 4.906667 44.16 44.16 0 0 1 0 8.746666 42.666667 42.666667 0 0 1-42.666666 42.666667h-6.186667a37.76 37.76 0 0 0-8.32 0H210.986667a21.333333 21.333333 0 0 0-2.986667 0 42.666667 42.666667 0 0 1-46.72-42.666667 43.946667 43.946667 0 0 1 0-7.466666A359.253333 359.253333 0 0 1 512 535.253333a350.293333 350.293333 0 0 1 132.693333 25.813334 21.333333 21.333333 0 1 0 16.64-39.466667 392.746667 392.746667 0 0 0-46.72-15.36A215.893333 215.893333 0 0 0 512 102.186667a215.893333 215.893333 0 0 0-101.973333 403.84A403.626667 403.626667 0 0 0 120.533333 816.64V819.2c0 1.493333 0 3.413333-1.28 5.12a21.333333 21.333333 0 0 0 0 5.76v4.693333a85.333333 85.333333 0 0 0 85.333334 85.333334H821.973333a85.333333 85.333333 0 0 0 85.333334-85.333334c-1.706667-1.493333-2.346667-3.84-2.56-6.4zM343.466667 317.44A169.386667 169.386667 0 1 1 512 490.666667a170.666667 170.666667 0 0 1-168.533333-173.226667zM724.053333 604.586667a32.64 32 90 1 0 64 0 32.64 32 90 1 0-64 0Z" /></svg>