<?xml version="1.0" standalone="no"?><!DOCTYPE svg PUBLIC "-//W3C//DTD SVG 1.1//EN" "http://www.w3.org/Graphics/SVG/1.1/DTD/svg11.dtd"><svg class="icon" width="200px" height="200.00px" viewBox="0 0 1024 1024" version="1.1" xmlns="http://www.w3.org/2000/svg"><path fill="#333333" d="M852.719206 862.260755H422.570669c-87.75202 0-162.371919-66.949268-177.467721-159.221847L165.410205 165.378806c-10.370693-77.360871-57.314956-125.266519-122.546003-125.266519a20.045916 20.045916 0 1 1 0-40.112287c85.583788 0 149.260254 62.71508 162.269644 159.794587l79.651834 537.087361c12.007095 73.638058 68.7084 125.286974 137.805444 125.286975h430.148537a20.025461 20.025461 0 1 1-0.020455 40.091832z"  /><path fill="#333333" d="M848.935028 714.780088H386.11983a20.025461 20.025461 0 1 1 0-40.091832h462.794743c4.029638 0 13.500311 0 21.457312-26.427881l90.574812-334.603156a20.680021 20.680021 0 0 0-20.495927-18.409515H201.942864a20.045916 20.045916 0 0 1 0-40.091831h738.507906a60.812763 60.812763 0 0 1 60.730943 60.730943l-0.715925 5.236484-91.536198 338.141874c-13.848046 46.003332-40.255472 55.514914-59.994562 55.514914z"  /><path fill="#333333" d="M436.991455 941.360303m-81.370054 0a81.370055 81.370055 0 1 0 162.740109 0 81.370055 81.370055 0 1 0-162.740109 0Z"  /><path fill="#333333" d="M731.932335 941.360303m-81.370055 0a81.370055 81.370055 0 1 0 162.740109 0 81.370055 81.370055 0 1 0-162.740109 0Z"  /></svg>