<?xml version="1.0" standalone="no"?><!DOCTYPE svg PUBLIC "-//W3C//DTD SVG 1.1//EN" "http://www.w3.org/Graphics/SVG/1.1/DTD/svg11.dtd"><svg class="icon" width="200px" height="199.80px" viewBox="0 0 1025 1024" version="1.1" xmlns="http://www.w3.org/2000/svg"><path fill="#333333" d="M294.810423 281.375435l682.172751 0c25.997094 0 47.072085-21.074991 47.072085-47.072085s-21.074991-47.072085-47.072085-47.072085L294.810423 187.231265c-25.997094 0-47.072085 21.074991-47.072085 47.072085S268.812305 281.375435 294.810423 281.375435zM75.822896 237.373269m-73.678046 0a72 72 0 1 0 147.356093 0 72 72 0 1 0-147.356093 0ZM976.983173 461.857996 294.810423 461.857996c-25.997094 0-47.072085 21.074991-47.072085 47.072085 0 25.997094 21.074991 47.072085 47.072085 47.072085l682.172751 0c25.997094 0 47.072085-21.074991 47.072085-47.072085C1024.055259 482.932987 1002.980267 461.857996 976.983173 461.857996zM75.822896 512m-73.678046 0a72 72 0 1 0 147.356093 0 72 72 0 1 0-147.356093 0ZM976.983173 736.484727 294.810423 736.484727c-25.997094 0-47.072085 21.074991-47.072085 47.072085s21.074991 47.072085 47.072085 47.072085l682.172751 0c25.997094 0 47.072085-21.074991 47.072085-47.072085S1002.980267 736.484727 976.983173 736.484727zM75.822896 786.626731m-73.678046 0a72 72 0 1 0 147.356093 0 72 72 0 1 0-147.356093 0Z" /></svg>